<?xml version="1.0" encoding="UTF-8" standalone="no"?>
<!-- Created with Inkscape (http://www.inkscape.org/) -->

<svg
   version="1.1"
   id="svg1"
   width="254.75003"
   height="110.56281"
   viewBox="0 0 254.75003 110.56281"
   sodipodi:docname="ak-200.svg"
   inkscape:version="1.4.2 (ebf0e940, 2025-05-08)"
   xmlns:inkscape="http://www.inkscape.org/namespaces/inkscape"
   xmlns:sodipodi="http://sodipodi.sourceforge.net/DTD/sodipodi-0.dtd"
   xmlns="http://www.w3.org/2000/svg"
   xmlns:svg="http://www.w3.org/2000/svg">
  <defs
     id="defs1" />
  <sodipodi:namedview
     id="namedview1"
     pagecolor="#ffffff"
     bordercolor="#000000"
     borderopacity="0.25"
     inkscape:showpageshadow="2"
     inkscape:pageopacity="0.0"
     inkscape:pagecheckerboard="0"
     inkscape:deskcolor="#d1d1d1"
     inkscape:zoom="2.8194041"
     inkscape:cx="140.98724"
     inkscape:cy="38.128624"
     inkscape:window-width="1280"
     inkscape:window-height="782"
     inkscape:window-x="488"
     inkscape:window-y="75"
     inkscape:window-maximized="0"
     inkscape:current-layer="g1" />
  <g
     inkscape:groupmode="layer"
     inkscape:label="Image"
     id="g1"
     transform="translate(-22.017903,-53.600488)">
    <path
       style="display:inline;fill:#000000"
       d="m 208.17921,53.669908 29.85956,-0.06942 -0.3696,17.887782 -5.13217,0.388027 0.16342,23.209577 38.6431,0.392245 5.42442,17.819281 -70.25092,0.15086 0.005,-1.87446 -21.08822,0.51428 v 7.82102 l -3.74048,2.38031 -15.64203,-1.02014 c 0,0 -3.40044,6.61695 -3.40044,10.20133 0,1.79219 1.70022,5.10066 1.70022,5.10066 0,0 1.84129,2.48434 3.06039,3.40044 4.45026,3.34416 9.68819,4.18444 15.03118,7.27717 l -4.14976,16.73084 c 0,0 -19.83725,1.13929 -27.0582,-2.2584 -3.42777,-1.61288 -4.60757,-4.61601 -6.39384,-7.9567 -2.36135,-4.41621 -3.64469,-9.14093 -3.80748,-14.14617 -0.14374,-4.41969 -0.21534,-13.337 -0.21534,-13.337 -2.45548,2.09236 -3.83094,3.70534 -6.28788,4.45445 -3.8908,1.18627 -8.67606,1.73433 -12.19921,-0.29864 -4.14204,-2.39009 -6.33,-7.6 -7.48097,-12.24159 -0.43734,-1.76369 0.34004,-5.4407 0.34004,-5.4407 h -14.96194 l -53.386935,21.76282 -3.060397,4.42058 -21.762825,8.84114 v -5.4407 l 19.382516,-21.76283 0.384796,-7.22197 1.567022,0.71955 11.989992,-1.99868 0.423205,-9.34223 26.780326,-0.51905 27.12778,-4.633763 0.0757,2.419778 1.02014,-0.166325 0.34004,-4.760618 h 7.14093 l 0.68009,-8.501104 9.18119,0.340044 1.02013,-1.020132 0.51059,-20.948481 6.97038,1.741802 4.27524,19.559935 h 12.58163 l 1.10386,-0.04187 0.12853,-4.977256 1.9132,-0.934208 -0.0852,-3.90795 c 0,0 -3.30516,-0.979964 -4.63308,-2.015929 -1.81276,-1.414204 -3.19856,-3.399383 -4.20807,-5.465042 -0.67469,-1.380545 -1.24303,-2.929057 -1.15376,-4.463052 0.12382,-2.127684 0.81997,-4.436649 2.30752,-5.962941 1.5091,-1.548408 3.86702,-2.071494 5.98717,-2.495685 2.00061,-0.400275 4.09844,-0.269766 6.12079,0 1.70685,0.227681 3.47169,0.532995 4.98529,1.354093 1.64816,0.894093 2.62129,1.861347 3.50365,3.515817 0.78949,1.480339 1.42154,3.53874 1.38452,5.216039 -0.0372,1.687231 -0.1454,3.478242 -0.91693,4.979202 -0.76762,1.493363 -2.14455,2.630765 -3.49757,3.625109 -1.23124,0.904851 -4.09878,2.052433 -4.09878,2.052433 l -0.34004,3.400441 1.82728,0.768205 -0.12706,2.632237 1.36017,2.720353 4.3831,-0.0426 0.12779,-2.803355 0.92982,0.805687 0.0426,-1.441716 2.03953,0.594894 0.29818,4.927352 3.74049,6.120795 26.69602,-1.185405 0.16746,3.225669 13.5173,-0.295985 0.66963,-20.459618 -11.31667,-0.01595 0.0135,-1.644938 -4.92404,-0.02642 5.10066,-5.100662 z"
       id="path2"
       sodipodi:nodetypes="cccccccccccccacaccssscaaaccccccccccccccccccccccccccccsssssssssssccccccccccccccccccccc" />
    <path
       style="fill:#ffffff"
       d="m 125.18487,110.85439 h -5.82937 c 0,0 -0.33273,6.54348 0.7515,9.90712 0.62705,1.94533 2.14781,4.56228 3.88545,5.63845 1.75683,1.08805 3.80491,0.9756 5.8314,0.57109 1.65808,-0.33097 3.5028,-0.8299 4.61618,-2.10236 1.96638,-2.24734 2.25246,-5.60745 2.59776,-8.57359 0.21012,-1.80492 -0.34004,-5.44071 -0.34004,-5.44071 l -7.33528,-0.0972 c 0,0 -1.80296,2.63124 -1.94326,4.15325 -0.26643,2.89017 2.18612,8.42838 2.18612,8.42838 l -4.56615,0.0972 z"
       id="path3"
       sodipodi:nodetypes="ccsssssccaccc" />
    <path
       style="fill:#ffffff"
       d="m 141.79841,110.1743 31.96415,0.68009 0.34004,4.42058 -28.90375,-0.68009 z"
       id="path4" />
    <path
       style="fill:#ffffff"
       d="m 154.72286,119.96033 h -8.16106 c 0,0 0.73507,15.62659 1.63209,23.46305 0.41988,3.66813 1.53853,6.53777 3.62508,9.58372 2.17485,3.17484 6.23221,4.548 8.54616,5.37738 4.91874,1.76299 12.72011,1.36101 12.72011,1.36101 l 2.04027,-7.48097 c 0,0 -6.84556,-1.75349 -11.31317,-5.19237 -2.15943,-1.66219 -6.66088,-6.58542 -7.73591,-9.08948 -1.74446,-4.06339 -1.79459,-8.84085 -1.69362,-13.26172 0.0363,-1.5905 0.34005,-4.76062 0.34005,-4.76062 z"
       id="path5"
       sodipodi:nodetypes="ccsssccsssc" />
    <path
       style="fill:#ffffff"
       d="m 78.550198,114.93492 -43.185607,20.06261 11.901545,-15.98208 30.944017,-6.46084 z"
       id="path6" />
    <path
       style="fill:#ffffff"
       d="m 59.167681,106.77386 14.961943,1.02013 -0.680089,2.38031 -13.94181,0.34005 z"
       id="path7" />
    <path
       style="fill:#ffffff"
       d="m 82.970771,106.09377 16.322119,-1.02013 -0.680088,3.0604 -11.901545,2.04026 z"
       id="path8" />
    <path
       style="fill:#ffffff"
       d="m 159.16329,59.832318 c -1.44524,-0.204777 -3.11922,-0.419338 -4.36581,0.340044 -1.60606,0.978357 -2.82186,2.922329 -2.96936,4.797124 -0.14444,1.835919 0.88826,3.741385 2.13739,5.094578 0.95361,1.033048 2.35565,1.732355 3.74657,1.937057 1.44848,0.213174 2.9896,-0.190728 4.31737,-0.807633 1.15193,-0.535208 2.36998,-1.281263 2.9511,-2.41073 0.51687,-1.004579 0.42258,-2.27101 0.21859,-3.382189 -0.26348,-1.435236 -0.74909,-2.987477 -1.8156,-3.983406 -1.09827,-1.025586 -2.73244,-1.374036 -4.22025,-1.584845 z"
       id="path9"
       sodipodi:nodetypes="ssssssssss" />
  </g>
</svg>
