<?xml version="1.0" encoding="UTF-8" standalone="no"?>
<!-- Created with Inkscape (http://www.inkscape.org/) -->

<svg
   version="1.1"
   id="svg1"
   width="261.0079"
   height="84.007454"
   viewBox="0 0 261.0079 84.007454"
   sodipodi:docname="fnaf-battle-rifle.svg"
   inkscape:version="1.4.2 (ebf0e940, 2025-05-08)"
   xmlns:inkscape="http://www.inkscape.org/namespaces/inkscape"
   xmlns:sodipodi="http://sodipodi.sourceforge.net/DTD/sodipodi-0.dtd"
   xmlns="http://www.w3.org/2000/svg"
   xmlns:svg="http://www.w3.org/2000/svg">
  <defs
     id="defs1" />
  <sodipodi:namedview
     id="namedview1"
     pagecolor="#ffffff"
     bordercolor="#000000"
     borderopacity="0.25"
     inkscape:showpageshadow="2"
     inkscape:pageopacity="0.0"
     inkscape:pagecheckerboard="0"
     inkscape:deskcolor="#d1d1d1"
     inkscape:zoom="2.4740068"
     inkscape:cx="131.16375"
     inkscape:cy="44.86649"
     inkscape:window-width="1512"
     inkscape:window-height="917"
     inkscape:window-x="0"
     inkscape:window-y="65"
     inkscape:window-maximized="0"
     inkscape:current-layer="g1" />
  <g
     inkscape:groupmode="layer"
     inkscape:label="Image"
     id="g1"
     transform="translate(-106.63869,-93.924698)">
    <path
       style="display:inline;fill:#000000"
       d="m 250.43469,148.32742 117.21189,-0.60418 -0.30209,-8.76069 h -18.35183 l -3.09674,-7.25022 0.30209,-17.82345 c 0,0 4.32637,-1.68764 5.89766,-3.98724 1.20378,-1.76175 2.51487,-4.69647 2.33779,-6.82285 -0.19075,-2.29053 -1.35435,-5.215921 -3.09987,-6.71128 -1.79018,-1.533618 -4.29824,-2.627791 -6.64604,-2.41674 -2.78663,0.250498 -5.51917,2.031216 -7.25022,4.229295 -1.3009,1.651878 -1.81674,3.939235 -1.81255,6.041855 0.005,2.42092 0.47896,4.201 1.8915,6.16712 1.01084,1.407 4.45244,3.80193 4.45244,3.80193 l -0.90628,17.52136 -87.00264,-1.81255 v -6.94813 l -13.59416,1.51046 0.21848,-23.57242 -2.30729,0.0844 -6.36978,6.5708 -10.27115,-4.22929 -4.53139,3.32302 0.3021,16.61508 -9.96036,0.1899 c 0,0 1.42223,-4.46691 0.56968,-6.53384 -0.82173,-1.9922 -3.0443,-3.74348 -5.13557,-4.26379 -2.3776,-0.59155 -5.225,-0.50712 -7.25023,0.87177 -1.94139,1.32181 -2.88598,4.00282 -3.51291,6.26625 -0.45695,1.64974 0.29822,4.08374 1.12198,5.58436 0.6318,1.15093 3.0297,2.96401 4.3328,3.12443 0.94815,0.11672 4.9628,-0.009 4.9628,-0.009 l 0.0693,3.8324 h -56.79339 l -13.59416,8.76068 -17.52137,-2.71883 c 0,0 -2.18174,13.62955 -3.71563,20.64807 -1.31906,6.03548 -4.44086,18.32186 -4.44086,18.32186 l 6.64603,0.60419 17.21927,-6.64604 3.58999,-5.46657 22.69206,-10.54433 19.33392,5.13557 3.02093,-9.06277 c 0,0 1.98426,8.43249 4.53138,11.7816 2.04821,2.69312 4.89635,5.13661 8.1565,6.04185 5.06865,1.4074 17.76895,-1.71647 17.76895,-1.71647 l 0.0139,7.56617 40.10994,-0.0277 z"
       id="path1"
       sodipodi:nodetypes="ccccccsssssssccccccccccccsssssscccccscccccccsscccc" />
    <path
       style="fill:#ffffff"
       d="m 121.44119,144.70231 10.87533,3.9272 -5.73976,17.21928 -12.50638,4.83441 z"
       id="path2"
       sodipodi:nodetypes="ccccc" />
    <path
       style="fill:#ffffff"
       d="m 185.58781,147.71631 10.77232,0.007 2.71883,9.96905 4.83348,-1.51046 -2.81491,-8.43088 9.05367,-0.0106 -0.16226,13.47407 c 0,0 -6.66804,2.26708 -9.0261,2.63884 -3.5322,0.55687 -6.34629,0.77437 -9.43619,-1.02537 -2.47339,-1.44065 -4.3764,-3.98768 -5.43767,-6.64603 -1.01081,-2.53197 -0.50117,-8.46552 -0.50117,-8.46552 z"
       id="path3"
       sodipodi:nodetypes="cccccccsssc" />
    <path
       style="fill:#ffffff"
       d="m 244.85575,148.05989 0.0742,22.14294 h -6.14856 l 0.17375,-22.1775 z"
       id="path4"
       sodipodi:nodetypes="ccccc" />
    <path
       style="fill:#ffffff"
       d="m 233.85568,148.02533 -0.11005,22.33833 -5.63305,0.0887 -0.0327,-22.42006 z"
       id="path5"
       sodipodi:nodetypes="ccccc" />
    <path
       style="fill:#ffffff"
       d="m 223.34937,147.93618 -0.10265,22.69349 h -7.12547 l 0.17171,-22.76412 z"
       id="path6"
       sodipodi:nodetypes="ccccc" />
    <path
       style="fill:#ffffff"
       d="m 344.68755,98.082195 c 1.54808,0.140353 2.86586,1.378919 3.9272,2.514615 0.80475,0.86113 1.33409,2.03325 1.36627,3.21144 0.0358,1.31052 -0.54123,2.41575 -1.36627,3.43459 -0.62282,0.76911 -1.4015,1.53516 -2.35149,1.81256 -1.26153,0.36837 -2.74836,0.23251 -3.9272,-0.34842 -0.96289,-0.47451 -1.65826,-1.43222 -2.1799,-2.37042 -0.54773,-0.98513 -0.98962,-2.1337 -0.90627,-3.25777 0.0914,-1.23318 0.62278,-2.52738 1.51046,-3.388262 1.01548,-0.984822 2.51839,-1.73606 3.9272,-1.608333 z"
       id="path7"
       sodipodi:nodetypes="ssssssssss" />
  </g>
</svg>
