<?xml version="1.0" encoding="UTF-8" standalone="no"?>
<!-- Created with Inkscape (http://www.inkscape.org/) -->

<svg
   version="1.1"
   id="svg1"
   width="312.26599"
   height="77.191299"
   viewBox="0 0 312.26599 77.1913"
   sodipodi:docname="harmann-and-wolffs-bolt-action-rifle.svg"
   inkscape:version="1.4.2 (ebf0e940, 2025-05-08)"
   xmlns:inkscape="http://www.inkscape.org/namespaces/inkscape"
   xmlns:sodipodi="http://sodipodi.sourceforge.net/DTD/sodipodi-0.dtd"
   xmlns="http://www.w3.org/2000/svg"
   xmlns:svg="http://www.w3.org/2000/svg">
  <defs
     id="defs1" />
  <sodipodi:namedview
     id="namedview1"
     pagecolor="#ffffff"
     bordercolor="#000000"
     borderopacity="0.25"
     inkscape:showpageshadow="2"
     inkscape:pageopacity="0.0"
     inkscape:pagecheckerboard="0"
     inkscape:deskcolor="#d1d1d1"
     inkscape:zoom="2.2174048"
     inkscape:cx="152.20496"
     inkscape:cy="36.078213"
     inkscape:window-width="1456"
     inkscape:window-height="817"
     inkscape:window-x="0"
     inkscape:window-y="38"
     inkscape:window-maximized="0"
     inkscape:current-layer="g1" />
  <g
     inkscape:groupmode="layer"
     inkscape:label="Image"
     id="g1"
     transform="translate(-69.086164,-133.73548)">
    <path
       style="display:inline;fill:#000000"
       d="m 168.33388,164.67796 49.68867,6.89305 0.37461,-5.99374 c 0,0 -3.87458,-0.62039 -5.24453,-1.87305 -1.31943,-1.20647 -1.61081,-4.10629 -1.45623,-5.88746 0.1707,-1.96697 4.88216,0.50296 6.53716,-0.57364 2.23763,-1.45561 4.10157,-4.05208 6.5979,-3.10652 2.60961,0.98847 1.27525,1.41148 1.87711,2.97992 0.4921,1.28239 -0.51547,3.32928 -0.51547,3.32928 l 18.42671,0.63616 -2.24766,-3.7461 4.49531,-8.2414 7.49219,5.24453 h 28.84491 l 4.86991,7.49218 16.48281,0.37461 29.59413,6.36836 7.79846,-34.20018 4.50379,-0.0254 -7.80694,35.34945 2.62226,4.49531 41.10073,0.55853 -1.01754,5.80982 -152.46595,-0.3746 c 0,0 0.57018,5.24533 -0.44673,7.55347 -1.07619,2.44269 -3.21196,4.51144 -5.5797,5.74381 -3.04735,1.5861 -6.76183,2.03366 -10.17474,1.64109 -3.58263,-0.41209 -7.29091,-1.73458 -10.01064,-4.10272 -2.62516,-2.28579 -5.25149,-9.02599 -5.25149,-9.02599 l -59.55628,-0.41624 -62.666656,29.34633 -6.11382,-3.66829 c 0,0 8.031566,-25.16666 18.577236,-30.97577 12.60839,-6.94537 43.17234,1.01805 43.17234,1.01805 l 8.86504,-1.22276 10.74808,-4.07134 17.37549,0.70874 z"
       id="path1"
       sodipodi:nodetypes="cccssscsccccccccccccccccssssccccsccccc" />
    <path
       style="fill:#ffffff"
       d="m 89.209957,180.23203 c 11.279573,-6.91826 38.680513,1.37893 38.680513,1.37893 l -49.987645,21.74787 c 0,0 3.743974,-18.48797 11.307132,-23.1268 z"
       id="path2"
       sodipodi:nodetypes="sccs" />
    <path
       style="fill:#ffffff"
       d="m 224.94441,165.8681 18.50192,0.16229 v 5.03123 l -18.17733,0.1623 z"
       id="path3" />
    <path
       style="fill:#ffffff"
       d="m 203.52113,179.82569 h 6.8165 l 4.86892,7.62798 3.73285,-2.59676 -3.40825,-5.51812 h 8.43947 c 0,0 0.98385,4.48923 0.1623,6.49191 -0.79866,1.94686 -2.59994,3.57737 -4.54433,4.38203 -2.84974,1.17934 -6.3405,1.18264 -9.25096,0.1623 -2.32052,-0.81352 -4.42575,-2.59182 -5.68042,-4.70663 -1.01234,-1.70635 -1.13608,-5.84271 -1.13608,-5.84271 z"
       id="path4"
       sodipodi:nodetypes="ccccccssssc" />
  </g>
</svg>
