<?xml version="1.0" encoding="UTF-8" standalone="no"?>
<!-- Created with Inkscape (http://www.inkscape.org/) -->

<svg
   version="1.1"
   id="svg1"
   width="252.52994"
   height="42.13924"
   viewBox="0 0 252.52994 42.13924"
   sodipodi:docname="m7-carbine.svg"
   inkscape:version="1.4.2 (ebf0e940, 2025-05-08)"
   xmlns:inkscape="http://www.inkscape.org/namespaces/inkscape"
   xmlns:sodipodi="http://sodipodi.sourceforge.net/DTD/sodipodi-0.dtd"
   xmlns="http://www.w3.org/2000/svg"
   xmlns:svg="http://www.w3.org/2000/svg">
  <defs
     id="defs1" />
  <sodipodi:namedview
     id="namedview1"
     pagecolor="#ffffff"
     bordercolor="#000000"
     borderopacity="0.25"
     inkscape:showpageshadow="2"
     inkscape:pageopacity="0.0"
     inkscape:pagecheckerboard="0"
     inkscape:deskcolor="#d1d1d1"
     showgrid="false"
     inkscape:zoom="4.4312989"
     inkscape:cx="122.0861"
     inkscape:cy="25.274756"
     inkscape:window-width="1432"
     inkscape:window-height="807"
     inkscape:window-x="0"
     inkscape:window-y="38"
     inkscape:window-maximized="0"
     inkscape:current-layer="g1" />
  <g
     inkscape:groupmode="layer"
     inkscape:label="Image"
     id="g1"
     transform="translate(-57.198078,-127.08793)">
    <path
       style="display:inline;fill:#000000"
       d="m 71.90853,133.51189 77.96521,0.37724 103.3868,-0.16413 4.7222,-6.62327 8.28385,-0.0138 0.10206,6.86867 43.35936,-0.0507 -0.0698,4.94716 h -26.37403 l -3.87766,6.47564 -11.16756,1.41374 0.78894,12.623 h -8.28385 v -8.67831 l -50.59788,0.12951 -0.0529,18.2614 -31.00426,0.14913 0.39446,-13.41195 c 0,0 -5.49751,3.75381 -8.67831,4.33916 -3.89889,0.7175 -8.14026,0.25603 -11.83407,-1.1834 -3.0629,-1.19357 -5.61794,-3.54081 -7.88939,-5.91704 -2.41928,-2.53088 -3.15689,-6.52427 -5.91703,-8.67832 -2.09894,-1.63804 -4.83633,-2.61756 -7.49491,-2.76128 -4.8722,-0.26338 -14.20089,3.55022 -14.20089,3.55022 l -52.069907,12.62301 -14.200885,-1.97235 c 0,0 1.046417,-13.33555 4.733628,-18.54004 2.192547,-3.09478 7.153933,-1.46996 7.153933,-1.46996 z"
       id="path1"
       sodipodi:nodetypes="ccccccccccccccccccssssacccscc" />
    <path
       style="fill:#ffffff"
       d="m 63.509512,152.26505 c 0,0 2.327237,-9.64463 4.733628,-12.62302 1.404808,-1.73873 5.917036,-3.15575 5.917036,-3.15575 l 48.519694,1.57788 -3.55023,3.94469 c 0,0 -42.276296,12.04296 -45.758402,11.4396 -2.867913,-0.49694 -9.861726,-1.1834 -9.861726,-1.1834 z"
       id="path2"
       sodipodi:nodetypes="cscccsc" />
    <path
       style="fill:#ffffff"
       d="m 149.50376,140.0365 14.42337,0.12148 -0.22249,9.74025 9.46726,-5.52257 -4.73363,-0.78894 v -3.15575 h 11.04513 l -0.39446,9.07279 c 0,0 -4.0608,4.16808 -6.70598,5.1281 -2.84551,1.03273 -6.14971,1.18125 -9.07279,0.39446 -3.7687,-1.01439 -7.30574,-3.36209 -9.86172,-6.3115 -2.08102,-2.40135 -3.94469,-8.67832 -3.94469,-8.67832 z"
       id="path3"
       sodipodi:nodetypes="ccccccccsssc" />
    <path
       style="fill:#ffffff"
       d="m 192.55138,165.06003 -8.67832,-0.10098 0.34397,-24.52805 8.45583,-0.12148 z"
       id="path4"
       sodipodi:nodetypes="ccccc" />
    <path
       style="fill:#ffffff"
       d="m 196.84004,140.0365 h 8.08183 l 0.0505,24.92252 -8.08184,-0.0505 z"
       id="path5"
       sodipodi:nodetypes="ccccc" />
    <path
       style="fill:#ffffff"
       d="m 209.9638,140.0222 48.65412,-0.53896 -0.1588,7.26427 -48.51002,0.29326 z"
       id="path6"
       sodipodi:nodetypes="ccccc" />
  </g>
</svg>
