<?xml version="1.0" encoding="UTF-8" standalone="no"?>
<!-- Created with Inkscape (http://www.inkscape.org/) -->

<svg
   version="1.1"
   id="svg1"
   width="272.6138"
   height="54.537537"
   viewBox="0 0 272.6138 54.537537"
   sodipodi:docname="m9-johnson.svg"
   inkscape:version="1.4.2 (ebf0e940, 2025-05-08)"
   xmlns:inkscape="http://www.inkscape.org/namespaces/inkscape"
   xmlns:sodipodi="http://sodipodi.sourceforge.net/DTD/sodipodi-0.dtd"
   xmlns="http://www.w3.org/2000/svg"
   xmlns:svg="http://www.w3.org/2000/svg">
  <defs
     id="defs1" />
  <sodipodi:namedview
     id="namedview1"
     pagecolor="#ffffff"
     bordercolor="#000000"
     borderopacity="0.25"
     inkscape:showpageshadow="2"
     inkscape:pageopacity="0.0"
     inkscape:pagecheckerboard="0"
     inkscape:deskcolor="#d1d1d1"
     inkscape:zoom="2.5541017"
     inkscape:cx="80.067289"
     inkscape:cy="-18.597537"
     inkscape:window-width="1464"
     inkscape:window-height="828"
     inkscape:window-x="0"
     inkscape:window-y="38"
     inkscape:window-maximized="0"
     inkscape:current-layer="g1" />
  <g
     inkscape:groupmode="layer"
     inkscape:label="Image"
     id="g1"
     transform="translate(-53.525582,-94.642364)">
    <path
       style="display:inline;fill:#000000"
       d="m 148.64077,94.730884 66.48191,-0.08852 1.09126,12.339086 -4.86534,0.43473 -1.45306,-6.8246 c 0,0 -23.94267,-4.702927 -32.51961,1.95777 -1.74689,1.3566 -2.02627,6.3184 -2.02627,6.3184 l 47.6115,4.35471 18.02356,6.45921 31.91045,0.21801 20.11237,-4.65229 1.04845,5.89073 31.93559,2.1141 0.1478,3.11711 -85.89673,0.26318 -15.24934,3.72292 -37.16019,1.48359 c 0,0 -1.97109,7.54582 -4.17745,10.12797 -2.52636,2.95666 -6.01549,5.35225 -9.76492,6.38476 -4.34892,1.19759 -9.35557,1.16848 -13.52067,-0.56336 -3.14935,-1.30949 -5.45047,-4.2305 -7.51148,-6.94812 -1.7424,-2.2975 -3.0437,-4.95979 -3.94353,-7.69927 -0.85102,-2.59086 -1.31451,-8.07484 -1.31451,-8.07484 l -15.01224,0.11944 c 0,0 -31.65021,4.94958 -41.112114,8.16584 -10.446249,3.55086 -20.04314,9.23881 -30.137219,10.50779 -8.581068,1.07877 -2.941739,-7.67307 -2.941739,-7.67307 l -4.871666,-15.89758 c 0,0 34.281263,5.66894 50.051728,0.22368 1.69249,-0.58439 4.2124,-3.33318 4.2124,-3.33318 l -0.18778,-4.69468 6.00918,-3.94353 34.17724,-0.56336 z"
       id="path1"
       sodipodi:nodetypes="cccccacccccccccccsssssccssccaccccc" />
    <path
       style="fill:#ffffff"
       d="m 65.486573,128.27141 28.884178,-1.39375 c 0,0 -10.353355,4.48816 -16.04802,6.54858 -6.754709,2.44396 -12.801233,4.32252 -12.801233,4.32252 l 0.01182,-1.01497 z"
       id="path2"
       sodipodi:nodetypes="ccsccc" />
    <path
       style="fill:#ffffff"
       d="m 155.86323,125.81731 h 11.07944 c 0,0 -2.77587,10.29644 0.67407,10.32829 1.62123,0.015 0.40633,-4.8469 0.40633,-4.8469 l 3.98985,-5.48139 12.01837,-0.18779 c 0,0 0.14516,2.91703 -0.18779,4.3191 -0.63437,2.67137 -1.74618,5.30496 -3.38017,7.51148 -1.58396,2.13897 -3.63124,4.06241 -6.00918,5.25804 -2.11702,1.06444 -4.58687,1.7006 -6.94812,1.5023 -2.35134,-0.19747 -4.77851,-1.0963 -6.57255,-2.62902 -2.60368,-2.22443 -4.39378,-5.51234 -5.25803,-8.82599 -0.58472,-2.24189 0.18778,-6.94812 0.18778,-6.94812 z"
       id="path3"
       sodipodi:nodetypes="ccccccssssssc" />
  </g>
</svg>
