<?xml version="1.0" encoding="UTF-8" standalone="no"?>
<!-- Created with Inkscape (http://www.inkscape.org/) -->

<svg
   version="1.1"
   id="svg1"
   width="275.36655"
   height="54.537537"
   viewBox="0 0 275.36655 54.537537"
   sodipodi:docname="m9-johnson.svg"
   inkscape:version="1.4.2 (ebf0e940, 2025-05-08)"
   xmlns:inkscape="http://www.inkscape.org/namespaces/inkscape"
   xmlns:sodipodi="http://sodipodi.sourceforge.net/DTD/sodipodi-0.dtd"
   xmlns="http://www.w3.org/2000/svg"
   xmlns:svg="http://www.w3.org/2000/svg">
  <defs
     id="defs1" />
  <sodipodi:namedview
     id="namedview1"
     pagecolor="#ffffff"
     bordercolor="#000000"
     borderopacity="0.25"
     inkscape:showpageshadow="2"
     inkscape:pageopacity="0.0"
     inkscape:pagecheckerboard="0"
     inkscape:deskcolor="#d1d1d1"
     inkscape:zoom="3.54474"
     inkscape:cx="135.97612"
     inkscape:cy="43.3036"
     inkscape:window-width="1464"
     inkscape:window-height="828"
     inkscape:window-x="0"
     inkscape:window-y="38"
     inkscape:window-maximized="0"
     inkscape:current-layer="g1" />
  <g
     inkscape:groupmode="layer"
     inkscape:label="Image"
     id="g1"
     transform="translate(-36.430683,-94.642366)">
    <path
       style="display:inline;fill:#000000"
       d="m 148.64077,94.93268 66.48191,-0.290314 2.61282,12.773814 h -6.3869 l -2.32252,-8.12879 -35.12799,0.87094 1.45157,8.70942 47.6115,4.35471 17.70915,5.51597 32.22486,1.16125 20.32198,-2.03219 0.87094,6.09659 17.70915,0.87094 v 5.22565 l -72.28818,0.29032 -14.51571,2.61282 -37.16019,-0.29031 c 0,0 -1.97109,6.71134 -4.17745,9.29349 -2.52636,2.95666 -6.01549,5.35225 -9.76492,6.38476 -4.34892,1.19759 -9.35557,1.16848 -13.52067,-0.56336 -3.14935,-1.30949 -5.45047,-4.2305 -7.51148,-6.94812 -1.7424,-2.2975 -3.0437,-4.95979 -3.94353,-7.69927 -0.85102,-2.59086 -1.31451,-8.07484 -1.31451,-8.07484 l -38.45945,1.67454 c 0,0 -8.203,3.39448 -17.664904,6.61074 -10.446249,3.55086 -18.870145,7.47932 -28.964224,8.7483 -8.581068,1.07877 -26.081339,1.36955 -26.081339,1.36955 l 0.563362,-20.281 66.476605,-1.5023 4.3191,-4.50688 -0.18778,-4.69468 6.00918,-3.94353 34.17724,-0.56336 z"
       id="path1"
       sodipodi:nodetypes="cccccccccccccccccsssssccsscccccccc" />
    <path
       style="fill:#ffffff"
       d="m 44.129952,128.44633 50.240799,-1.56867 c 0,0 -10.353355,4.48816 -16.04802,6.54858 -6.754709,2.44396 -13.79884,4.54338 -20.946024,5.26225 -4.92181,0.49504 -13.876489,0.64948 -13.876489,0.64948 z"
       id="path2"
       sodipodi:nodetypes="ccsscc" />
    <path
       style="fill:#ffffff"
       d="m 155.86323,125.81731 h 11.07944 v 10.32829 h 5.44582 l -0.37557,-10.32829 12.01837,-0.18779 c 0,0 0.14516,2.91703 -0.18779,4.3191 -0.63437,2.67137 -1.74618,5.30496 -3.38017,7.51148 -1.58396,2.13897 -3.63124,4.06241 -6.00918,5.25804 -2.11702,1.06444 -4.58687,1.7006 -6.94812,1.5023 -2.35134,-0.19747 -4.77851,-1.0963 -6.57255,-2.62902 -2.60368,-2.22443 -4.39378,-5.51234 -5.25803,-8.82599 -0.58472,-2.24189 0.18778,-6.94812 0.18778,-6.94812 z"
       id="path3"
       sodipodi:nodetypes="ccccccssssssc" />
  </g>
</svg>
