<?xml version="1.0" encoding="UTF-8" standalone="no"?>
<!-- Created with Inkscape (http://www.inkscape.org/) -->

<svg
   version="1.1"
   id="svg1"
   width="247.87102"
   height="99.372551"
   viewBox="0 0 247.87102 99.372551"
   sodipodi:docname="mk-200.svg"
   inkscape:version="1.4.2 (ebf0e940, 2025-05-08)"
   xmlns:inkscape="http://www.inkscape.org/namespaces/inkscape"
   xmlns:sodipodi="http://sodipodi.sourceforge.net/DTD/sodipodi-0.dtd"
   xmlns="http://www.w3.org/2000/svg"
   xmlns:svg="http://www.w3.org/2000/svg">
  <defs
     id="defs1" />
  <sodipodi:namedview
     id="namedview1"
     pagecolor="#ffffff"
     bordercolor="#000000"
     borderopacity="0.25"
     inkscape:showpageshadow="2"
     inkscape:pageopacity="0.0"
     inkscape:pagecheckerboard="0"
     inkscape:deskcolor="#d1d1d1"
     inkscape:zoom="3.9775246"
     inkscape:cx="121.3066"
     inkscape:cy="43.745801"
     inkscape:window-width="1472"
     inkscape:window-height="807"
     inkscape:window-x="0"
     inkscape:window-y="38"
     inkscape:window-maximized="0"
     inkscape:current-layer="g1" />
  <g
     inkscape:groupmode="layer"
     inkscape:label="Image"
     id="g1"
     transform="translate(-84.6161,-131.68731)">
    <path
       style="display:inline;fill:#000000"
       d="m 131.31373,147.5645 h 20.17337 l -1.30753,-10.27348 12.88854,-0.37358 -0.37358,-5.23013 6.35088,0.56037 0.18679,4.66976 14.19608,-1.12074 0.18679,8.59236 73.96904,-1.8679 -9.8999,16.62435 -26.33746,0.74717 0.56037,5.60371 14.19608,-0.56037 3.17544,4.66976 86.85759,1.30754 6.35088,9.89989 -4.85656,5.04335 -155.22291,-2.80186 c 0,0 -0.70932,6.45817 -2.67801,9.48949 -2.19203,3.37521 -5.60548,6.41956 -9.27658,8.06882 -4.14644,1.86281 -8.74164,3.65313 -13.26213,3.17543 -4.59744,-0.48583 -9.33705,-2.61971 -12.51496,-5.97729 -2.36063,-2.49409 -3.9226,-9.52632 -3.9226,-9.52632 l -4.85656,0.37358 -17.37151,42.40145 h -5.41693 l -18.49226,-39.97317 38.66564,-7.28483 20.36016,-7.28483 -0.37358,-5.60371 -16.81115,-1.12075 c 0,0 -1.81905,-3.50901 -2.24148,-5.41692 -0.61974,-2.79904 -0.78964,-5.75589 -0.37358,-8.59237 0.44009,-3.00032 2.98865,-8.59236 2.98865,-8.59236 z"
       id="path1"
       sodipodi:nodetypes="cccccccccccccccccccsssscccccccccsscc" />
    <path
       style="fill:#ffffff"
       d="m 91.645614,195.16643 28.139076,-5.67944 -14.45677,31.62419 z"
       id="path2" />
    <path
       style="fill:#ffffff"
       d="m 138.37197,186.51819 7.61562,-1.67802 2.45249,7.35746 4.00143,-0.90355 -2.32341,-6.97023 12.39152,-2.19433 c 0,0 2.74052,1.73353 3.48511,3.09788 0.66758,1.22323 1.02624,2.79002 0.64539,4.13051 -0.75887,2.67106 -3.15785,4.71634 -5.42129,6.32484 -2.78751,1.98093 -6.15931,3.31273 -9.55179,3.74327 -3.18187,0.40381 -6.85361,0.57241 -9.5518,-1.16171 -2.07957,-1.33654 -3.23019,-3.93766 -3.87235,-6.32483 -0.46956,-1.74555 0.12908,-5.42129 0.12908,-5.42129 z"
       id="path3"
       sodipodi:nodetypes="ccccccssssssc" />
  </g>
</svg>
