<?xml version="1.0" encoding="UTF-8" standalone="no"?>
<!-- Created with Inkscape (http://www.inkscape.org/) -->

<svg
   version="1.1"
   id="svg1"
   width="285.82391"
   height="85.429031"
   viewBox="0 0 285.82392 85.429031"
   sodipodi:docname="mk-200.svg"
   inkscape:version="1.4.2 (ebf0e940, 2025-05-08)"
   xmlns:inkscape="http://www.inkscape.org/namespaces/inkscape"
   xmlns:sodipodi="http://sodipodi.sourceforge.net/DTD/sodipodi-0.dtd"
   xmlns="http://www.w3.org/2000/svg"
   xmlns:svg="http://www.w3.org/2000/svg">
  <defs
     id="defs1" />
  <sodipodi:namedview
     id="namedview1"
     pagecolor="#ffffff"
     bordercolor="#000000"
     borderopacity="0.25"
     inkscape:showpageshadow="2"
     inkscape:pageopacity="0.0"
     inkscape:pagecheckerboard="0"
     inkscape:deskcolor="#d1d1d1"
     inkscape:zoom="3.2902062"
     inkscape:cx="137.68134"
     inkscape:cy="18.843803"
     inkscape:window-width="1472"
     inkscape:window-height="807"
     inkscape:window-x="0"
     inkscape:window-y="38"
     inkscape:window-maximized="0"
     inkscape:current-layer="g1"
     showguides="true" />
  <g
     inkscape:groupmode="layer"
     inkscape:label="Image"
     id="g1"
     transform="translate(-46.663249,-143.90418)">
    <path
       style="display:inline;fill:#000000"
       d="m 129.8604,154.74096 21.6267,0.38089 7.10557,0.0684 4.6205,-3.49925 -0.12955,-7.78682 6.58432,0.0157 0.0312,3.58036 12.79752,0.17538 -0.27905,6.26317 74.89862,-0.39257 -9.35416,6.29968 -26.41527,0.0468 0.56037,5.60371 14.35171,0.52903 3.01981,3.58036 88.02218,0.14295 5.18629,13.39367 -5.55532,0.15205 -154.52415,-0.23975 c 0,0 -0.70932,6.45817 -2.67801,9.48949 -2.19203,3.37521 -5.60548,6.41956 -9.27658,8.06882 -4.14644,1.86281 -8.74164,3.65313 -13.26213,3.17543 -4.59744,-0.48583 -9.33705,-2.61971 -12.51496,-5.97729 -2.36063,-2.49409 -3.9226,-9.52632 -3.9226,-9.52632 l -4.85656,0.37358 -29.301197,40.67478 c 0,0 -3.5917,-22.22651 -12.430858,-30.74769 C 73.719598,188.51606 46.663249,176.1251 46.663249,176.1251 l 37.862578,0.88054 18.014343,-1.50345 48.12232,-13.52835 c 0,0 -21.03775,0.39534 -26.64147,0.0218 l 0.086,-6.2123 0.29665,-4.17385 z"
       id="path1"
       sodipodi:nodetypes="cccccccccccccccccccsssscccscccccccc" />
    <path
       style="fill:#ffffff"
       d="m 91.645614,195.16643 28.139076,-5.67944 -18.38101,21.2642 z"
       id="path2"
       sodipodi:nodetypes="cccc" />
    <path
       style="fill:#ffffff"
       d="m 138.37197,186.51819 7.61562,-1.67802 2.45249,7.35746 4.00143,-0.90355 -2.32341,-6.97023 12.39152,-2.19433 c 0,0 2.74052,1.73353 3.48511,3.09788 0.66758,1.22323 1.02624,2.79002 0.64539,4.13051 -0.75887,2.67106 -3.15785,4.71634 -5.42129,6.32484 -2.78751,1.98093 -6.15931,3.31273 -9.55179,3.74327 -3.18187,0.40381 -6.85361,0.57241 -9.5518,-1.16171 -2.07957,-1.33654 -3.23019,-3.93766 -3.87235,-6.32483 -0.46956,-1.74555 0.12908,-5.42129 0.12908,-5.42129 z"
       id="path3"
       sodipodi:nodetypes="ccccccssssssc" />
  </g>
</svg>
