<?xml version="1.0" encoding="UTF-8" standalone="no"?>
<!-- Created with Inkscape (http://www.inkscape.org/) -->

<svg
   version="1.1"
   id="svg1"
   width="386.10968"
   height="86.377037"
   viewBox="0 0 386.10968 86.377036"
   sodipodi:docname="mr-27-drumbeat.svg"
   inkscape:version="1.4.2 (ebf0e940, 2025-05-08)"
   xmlns:inkscape="http://www.inkscape.org/namespaces/inkscape"
   xmlns:sodipodi="http://sodipodi.sourceforge.net/DTD/sodipodi-0.dtd"
   xmlns="http://www.w3.org/2000/svg"
   xmlns:svg="http://www.w3.org/2000/svg">
  <defs
     id="defs1" />
  <sodipodi:namedview
     id="namedview1"
     pagecolor="#ffffff"
     bordercolor="#000000"
     borderopacity="0.25"
     inkscape:showpageshadow="2"
     inkscape:pageopacity="0.0"
     inkscape:pagecheckerboard="0"
     inkscape:deskcolor="#d1d1d1"
     inkscape:zoom="2.3597843"
     inkscape:cx="190.6954"
     inkscape:cy="-27.756775"
     inkscape:window-width="1448"
     inkscape:window-height="826"
     inkscape:window-x="25"
     inkscape:window-y="38"
     inkscape:window-maximized="0"
     inkscape:current-layer="g1" />
  <g
     inkscape:groupmode="layer"
     inkscape:label="Image"
     id="g1"
     transform="translate(-135.31117,-202.87366)">
    <path
       style="display:inline;fill:#000000"
       d="m 306.12006,213.74058 49.21397,-7.07517 26.08865,-3.79175 2.0983,9.78211 9.42697,9.45419 3.29678,2.85338 21.01255,-0.27383 62.3201,-0.42725 8.89007,-8.79182 -5.72259,-0.0272 5.45153,4.62626 -0.0312,4.14249 c 11.08546,0.0951 22.17035,0.024 33.25566,-0.0378 l -9.17458,7.8195 -10.51718,-0.0326 -3.60851,5.86468 -52.25978,-0.75376 -15.97663,22.70091 -1.02354,25.38364 -5.93649,4.09414 0.2047,-47.90138 -109.10869,-1.07909 c 0,0 4.04924,6.04019 5.11767,10.08618 1.0852,4.1095 1.82486,8.48353 1.22824,12.69182 -0.75236,5.30679 -2.43551,10.88512 -5.9365,14.94359 -3.55477,4.12081 -7.20935,5.92868 -12.36835,7.66135 -4.75775,1.59791 -11.33692,2.83311 -16.17308,1.49108 -3.84066,-1.06579 -7.32794,-3.48361 -9.94343,-6.49124 -2.94912,-3.39129 -5.55984,-7.33597 -6.75533,-11.66828 -1.32515,-4.80218 -1.0148,-10.02824 -0.2047,-14.94359 0.56504,-3.42841 1.78407,-6.79327 3.48001,-9.82593 1.1131,-1.99044 4.29884,-5.32237 4.29884,-5.32237 h -8.59768 c 0,0 0.60471,4.40294 0.20471,6.55061 -0.61028,3.27674 -1.83151,6.5899 -3.88943,9.21181 -2.04755,2.60868 -5.08921,4.31772 -7.98356,5.93649 -3.52779,1.97305 -6.37782,3.41495 -10.38067,3.97663 -3.32829,0.46702 -8.36079,-0.36953 -11.43575,-1.7261 -3.93509,-1.73602 -6.46318,-3.96586 -9.0943,-7.3682 -3.28577,-4.24887 -7.36944,-14.32947 -7.36944,-14.32947 l -4.29885,0.61412 -76.1509,46.26372 -2.45648,-4.09413 c 0,0 7.57328,-25.53419 9.2118,-38.68957 0.59885,-4.80806 -1.76323,-10.10663 0.20471,-14.53418 0.52949,-1.19127 1.65246,-2.18469 2.86589,-2.66119 1.46082,-0.57365 3.24744,-0.57365 4.70826,0 1.21343,0.4765 1.70438,2.06927 2.86589,2.66119 3.77964,1.92616 8.25228,2.20746 12.48711,2.45648 2.66445,0.15668 5.59547,0.57786 7.98356,-0.61412 2.03316,-1.01482 3.35482,-3.15705 4.50355,-5.11767 1.97465,-3.37028 2.87831,-7.28115 3.88943,-11.05416 0.57507,-2.14587 6.71792,0.98173 6.71792,0.98173 l 8.66373,2.93634 26.17382,6.72668 16.17183,-5.32238 22.72245,-2.04707 c 0,0 4.2811,1.05312 6.70354,-1.13113 3.20709,-2.89175 11.05416,-0.61898 11.05416,-0.61898 l 10.48081,-2.0638 6.26477,-1.21803 z"
       id="path1"
       sodipodi:nodetypes="ccccccccccccccccccccccsssssssssccssssssccccssssssssscccccscccc" />
    <path
       style="fill:#ffffff"
       d="m 150.0852,236.34912 c 0,0 12.54648,2.81929 18.93598,3.27289 2.64397,0.1877 5.49342,0.76557 7.94844,-0.23378 2.45184,-0.99805 4.24146,-3.27022 5.84444,-5.37689 2.06818,-2.71804 3.56067,-5.88898 4.67555,-9.11732 0.80318,-2.32575 2.80883,-4.716 2.80883,-4.716 l 28.28359,10.09288 -75.51016,47.22307 c 0,0 6.52466,-21.42126 7.48088,-32.49508 0.24841,-2.87676 -0.46755,-8.64977 -0.46755,-8.64977 z"
       id="path2"
       sodipodi:nodetypes="csssscccsc" />
    <path
       style="fill:#ffffff"
       d="m 244.06378,239.38823 h 18.00087 c 0,0 1.35588,4.38223 0.93511,6.54577 -0.53327,2.74203 -2.21072,5.29416 -4.20799,7.24711 -3.11715,3.04797 -7.14514,5.65551 -11.4551,6.31199 -3.85264,0.58682 -8.09612,-0.36182 -11.4551,-2.33778 -3.09621,-1.82138 -5.14611,-5.11343 -7.01333,-8.18221 -1.83532,-3.01634 -3.97422,-9.81866 -3.97422,-9.81866 h 13.32532 l 6.54577,13.79288 4.44178,-2.33778 z"
       id="path3"
       sodipodi:nodetypes="ccsssssccccc" />
    <path
       style="display:inline;fill:#ffffff"
       d="m 293.39085,238.92067 h 11.68888 c 0,0 6.24872,7.78714 7.94843,12.39021 1.58042,4.28002 2.3524,9.5044 1.16766,13.91038 -1.28313,4.77188 -4.55814,8.24831 -8.41476,11.3376 -3.83595,3.07273 -7.53536,5.25817 -12.44712,5.4338 -4.51211,0.16134 -10.72691,-2.00335 -13.85347,-5.26062 -4.16386,-4.33793 -5.31342,-9.82604 -5.49316,-15.83628 -0.15711,-5.25346 1.52137,-10.67828 4.20799,-15.19554 1.60574,-2.69987 6.77955,-6.54577 6.77955,-6.54577 z"
       id="path4"
       sodipodi:nodetypes="ccssssssscc" />
    <path
       style="fill:#ffffff"
       d="m 428.98184,241.25845 v 9.81866 l 10.41318,-9.69775 z"
       id="path5"
       sodipodi:nodetypes="cccc" />
    <path
       style="fill:#000000"
       d="m 288.75373,252.5717 c 2.56296,-1.08536 6.35102,-0.80056 8.25513,1.22948 1.2647,1.34834 2.35876,3.26208 2.10769,5.09359 -0.35559,2.59404 -1.26853,5.67706 -3.51282,7.02564 -2.00798,1.20658 -5.04844,1.08075 -7.02564,-0.17564 -1.98889,-1.26382 -3.22138,-3.96736 -3.16153,-6.32307 0.0786,-3.09259 0.48849,-5.64365 3.33717,-6.85 z"
       id="path6"
       sodipodi:nodetypes="sssssss" />
  </g>
</svg>
