<?xml version="1.0" encoding="UTF-8" standalone="no"?>
<!-- Created with Inkscape (http://www.inkscape.org/) -->

<svg
   version="1.1"
   id="svg1"
   width="237.13634"
   height="55.665363"
   viewBox="0 0 237.13634 55.665363"
   sodipodi:docname="pts-27.svg"
   inkscape:version="1.4.2 (ebf0e940, 2025-05-08)"
   xmlns:inkscape="http://www.inkscape.org/namespaces/inkscape"
   xmlns:sodipodi="http://sodipodi.sourceforge.net/DTD/sodipodi-0.dtd"
   xmlns="http://www.w3.org/2000/svg"
   xmlns:svg="http://www.w3.org/2000/svg">
  <defs
     id="defs1" />
  <sodipodi:namedview
     id="namedview1"
     pagecolor="#ffffff"
     bordercolor="#000000"
     borderopacity="0.25"
     inkscape:showpageshadow="2"
     inkscape:pageopacity="0.0"
     inkscape:pagecheckerboard="0"
     inkscape:deskcolor="#d1d1d1"
     inkscape:zoom="2.8294644"
     inkscape:cx="127.05585"
     inkscape:cy="11.309561"
     inkscape:window-width="1512"
     inkscape:window-height="917"
     inkscape:window-x="0"
     inkscape:window-y="65"
     inkscape:window-maximized="0"
     inkscape:current-layer="g1" />
  <g
     inkscape:groupmode="layer"
     inkscape:label="Image"
     id="g1"
     transform="translate(-46.143658,-26.367805)">
    <path
       style="display:inline;fill:#000000"
       d="m 60.06,48.340975 c 0,0 9.159274,3.046742 13.916341,3.662195 15.859407,2.051835 47.974759,0 47.974759,0 l -1.8311,-5.859512 12.08524,-7.32439 c 0,0 4.09997,2.702086 5.85952,4.394634 1.81371,1.744637 4.76085,5.859512 4.76085,5.859512 l 2.58196,-2.426474 -5.87794,-5.264135 4.13866,-2.837267 6.11549,5.400803 3.66219,-0.366219 2.56354,-17.212317 h 4.76085 l -1.09865,15.747439 18.31097,-1.464878 1.09866,6.225731 c 0,0 21.60784,1.320101 39.34529,3.343103 3.51941,0.401398 21.23978,5.201176 25.57579,4.329088 3.76671,-0.757587 8.68904,-4.742435 8.68904,-4.742435 l 0.36622,-4.028414 4.76086,0.210738 0.36621,5.282554 3.85452,3.780839 20.87451,0.347801 0.36622,5.667193 h -23.26415 l -1.94974,8.285985 -7.11365,-1.024982 1.00656,-7.168909 -123.78219,-0.366219 c 0,0 -1.26826,8.858364 -4.02842,12.085244 -2.59072,3.028786 -6.66489,5.003788 -10.62036,5.493292 -4.23155,0.52367 -9.41562,0.06422 -12.45147,-2.929756 C 97.492939,71.907005 99.09598,64.991591 95.101163,61.71773 92.985106,59.983563 89.893598,59.259582 87.198714,59.693781 79.648227,60.910311 76.105245,65.155582 69.215487,69.388855 63.301594,73.022527 52.00317,82.03317 52.00317,82.03317 l -5.859512,-2.197317 c 0,0 5.986379,-8.351873 8.789268,-16.113658 C 56.071428,60.569447 60.06,48.340975 60.06,48.340975 Z"
       id="path1"
       sodipodi:nodetypes="cscccscccccccccccssccccccccccccssssssccsc" />
    <path
       style="fill:#ffffff"
       d="M 63.355975,55.299146 76.906097,57.862683 63.355975,67.01817 Z"
       id="path2" />
    <path
       style="fill:#ffffff"
       d="m 116.21023,60.197062 6.83953,0.229157 c 0,0 -0.10715,5.23735 -1.46488,7.32439 -1.3852,2.129257 -3.7581,3.791895 -6.22573,4.394635 -2.63306,0.643146 -6.11207,0.789334 -8.05683,-1.098659 C 104.63844,68.460471 105.47122,60.06 105.47122,60.06 h 4.02841 l 1.09866,6.95817 c 0,0 1.57994,1.498756 2.56354,1.464878 1.31964,-0.04545 3.29597,-2.197317 3.29597,-2.197317 z"
       id="path3"
       sodipodi:nodetypes="ccssscccscc" />
  </g>
</svg>
