<?xml version="1.0" encoding="UTF-8" standalone="no"?>
<!-- Created with Vectornator (http://vectornator.io/) -->

<svg
   height="62.78418pt"
   stroke-miterlimit="10"
   style="clip-rule:evenodd;fill-rule:nonzero;stroke-linecap:round;stroke-linejoin:round"
   version="1.1"
   viewBox="0 0 157.5 62.78418"
   width="157.5pt"
   xml:space="preserve"
   id="svg1"
   sodipodi:docname="rifle-a-main-offensive.svg"
   inkscape:version="1.4.2 (ebf0e940, 2025-05-08)"
   xmlns:inkscape="http://www.inkscape.org/namespaces/inkscape"
   xmlns:sodipodi="http://sodipodi.sourceforge.net/DTD/sodipodi-0.dtd"
   xmlns="http://www.w3.org/2000/svg"
   xmlns:svg="http://www.w3.org/2000/svg"><sodipodi:namedview
   id="namedview1"
   pagecolor="#ffffff"
   bordercolor="#000000"
   borderopacity="0.25"
   inkscape:showpageshadow="2"
   inkscape:pageopacity="0.0"
   inkscape:pagecheckerboard="0"
   inkscape:deskcolor="#d1d1d1"
   inkscape:document-units="pt"
   inkscape:zoom="2.0156322"
   inkscape:cx="165.45678"
   inkscape:cy="145.36383"
   inkscape:window-width="1512"
   inkscape:window-height="945"
   inkscape:window-x="0"
   inkscape:window-y="37"
   inkscape:window-maximized="0"
   inkscape:current-layer="svg1" />
<defs
   id="defs1" />
<g
   id="Layer-1"
   transform="translate(-20.5,-69.621034)">
<path
   d="M 81.125,73 C 80.375,74.1667 80,83 80,83 c 0,0 -11.4167,-1.1667 -12.5,-0.25 -1.0833,0.9167 -1.125,8.9583 -2.875,9.875 -1.75,0.9167 -16.75,0.875 -16.75,0.875 L 30.25,90.375 c 0,0 -9.75,25.125 -9.75,26.125 l 2.75,0.25 c 0,0 20.0677,-12.125 23.25,-12.75 H 49 v 3 l 17,-1 c 0,0 -5,22.667 -5,23.5 0,0.833 0.125,1.542 0.375,2.125 0.25,0.583 9,1.417 9.75,0 C 71.875,130.208 73,117.5 73,117.5 c 0,0 8.125,0 13.625,-2.875 C 92.125,111.75 91,104 91,104 h 5 l 1,3 c 2.6667,0.667 9.375,1.125 9.375,1.125 0,0 1.625,2.542 2.125,3.375 0.5,0.833 44.083,0.042 44.75,-0.375 0.667,-0.417 5.625,-6.125 5.625,-6.125 H 163 c 0,0 2.824,11 3.5,11 h 3.5 l -3,-14 h 11 c 0,0 -0.833,-7.875 -1.5,-8.625 -0.667,-0.75 -6.333,-0.25 -6.5,-0.75 -0.167,-0.5 -0.042,-2 -0.625,-2.25 C 168.792,90.125 164,90 164,90 l 2,-11 c 0,0 -4,-0.9167 -4.5,0 -0.5,0.9167 -2.625,11.5 -2.625,11.5 H 113.5 c 0,0 -0.958,-1.875 -2.375,-2.125 C 109.708,88.125 97,88 97,88 c 0,0 2.375,-4.25 2.625,-5.25 0.25,-1 0.2083,-5.5 -0.125,-6.5 -0.3333,-1 -2.9583,-4.2917 -3.875,-4.875 -0.9167,-0.5833 -5.5417,-1.8333 -6.875,-1.75 -1.3333,0.0833 -6.875,2.2083 -7.625,3.375 z M 95.5,81.75 C 94,86.5 93.375,85 90,85 c -3.375,0 -5.5,-2.75 -5.5,-5.75 0,-3 0,-5.5 4,-5.5 4,0 8.5,3.25 7,8 z M 47,98 26,111 31.625,98 Z m 38.5,6.625 c 0.5,0.417 2.375,4.375 -1,6.375 -3.375,2 -11.5,2 -11.5,2 v -8 c 0,0 12,-0.792 12.5,-0.375 z"
   fill="#000000"
   fill-rule="nonzero"
   opacity="1"
   stroke="none"
   id="path1" />
</g>
</svg>
