<?xml version="1.0" encoding="UTF-8" standalone="no"?>
<!DOCTYPE svg PUBLIC "-//W3C//DTD SVG 1.1//EN" "http://www.w3.org/Graphics/SVG/1.1/DTD/svg11.dtd">
<!-- Created with Vectornator (http://vectornator.io/) -->
<svg height="196.0pt" stroke-miterlimit="10" style="fill-rule:nonzero;clip-rule:evenodd;stroke-linecap:round;stroke-linejoin:round;" version="1.1" viewBox="0 0 192 196" width="192.0pt" xml:space="preserve" xmlns="http://www.w3.org/2000/svg" xmlns:xlink="http://www.w3.org/1999/xlink">
<defs/>
<g id="Layer-1">
<path d="M81.125 73C80.375 74.1667 80 83 80 83C80 83 68.5833 81.8333 67.5 82.75C66.4167 83.6667 66.375 91.7083 64.625 92.625C62.875 93.5417 47.875 93.5 47.875 93.5L30.25 90.375C30.25 90.375 20.5 115.5 20.5 116.5L23.25 116.75C23.25 116.75 43.3177 104.625 46.5 104L49 104L49 107L66 106C66 106 61 128.667 61 129.5C61 130.333 61.125 131.042 61.375 131.625C61.625 132.208 70.375 133.042 71.125 131.625C71.875 130.208 73 117.5 73 117.5C73 117.5 81.125 117.5 86.625 114.625C92.125 111.75 91 104 91 104L96 104L97 107C99.6667 107.667 106.375 108.125 106.375 108.125C106.375 108.125 108 110.667 108.5 111.5C109 112.333 152.583 111.542 153.25 111.125C153.917 110.708 158.875 105 158.875 105L163 105C163 105 165.824 116 166.5 116L170 116L167 102L178 102C178 102 177.167 94.125 176.5 93.375C175.833 92.625 170.167 93.125 170 92.625C169.833 92.125 169.958 90.625 169.375 90.375C168.792 90.125 164 90 164 90L166 79C166 79 162 78.0833 161.5 79C161 79.9167 158.875 90.5 158.875 90.5L113.5 90.5C113.5 90.5 112.542 88.625 111.125 88.375C109.708 88.125 97 88 97 88C97 88 99.375 83.75 99.625 82.75C99.875 81.75 99.8333 77.25 99.5 76.25C99.1667 75.25 96.5417 71.9583 95.625 71.375C94.7083 70.7917 90.0833 69.5417 88.75 69.625C87.4167 69.7083 81.875 71.8333 81.125 73ZM95.5 81.75C94 86.5 93.375 85 90 85C86.625 85 84.5 82.25 84.5 79.25C84.5 76.25 84.5 73.75 88.5 73.75C92.5 73.75 97 77 95.5 81.75ZM47 98L26 111L31.625 98L47 98ZM85.5 104.625C86 105.042 87.875 109 84.5 111C81.125 113 73 113 73 113L73 105C73 105 85 104.208 85.5 104.625Z" fill="#000000" fill-rule="nonzero" opacity="1" stroke="none"/>
</g>
</svg>
